<svg width="111" height="97" viewBox="0 0 111 97" fill="none" xmlns="http://www.w3.org/2000/svg">
<g id="Group 1">
<g id="Group">
<g id="Group_2">
<path id="Vector" fill-rule="evenodd" clip-rule="evenodd" d="M100.811 35.5645C110.879 26.6368 113.764 12.0952 107.868 0C76.3932 32.3876 65.9123 43.3251 65.9123 43.3251C57.6812 51.913 54.7149 60.1088 62.3958 73.4131C88.0062 48.1806 100.811 35.5645 100.811 35.5645Z" fill="#FFC300"/>
<path id="Vector_2" fill-rule="evenodd" clip-rule="evenodd" d="M70.1932 86.739L75.974 96.8875C85.7253 91.7879 90.0877 80.6096 86.889 70.2642L98.5122 58.7417C102.792 54.9456 104.019 48.7629 101.513 43.62L72.3776 73.6788C66.059 80.375 69.2226 85.0583 70.1932 86.739Z" fill="#FFC300"/>
</g>
<g id="Group_3">
<path id="Vector_3" fill-rule="evenodd" clip-rule="evenodd" d="M10.0887 35.5645C0.0219377 26.6368 -2.86335 12.0952 3.03226 0C34.507 32.3876 44.9883 43.3251 44.9883 43.3251C53.219 51.913 56.1853 60.1088 48.5044 73.4131C22.894 48.1806 10.0887 35.5645 10.0887 35.5645Z" fill="#FFC300"/>
<path id="Vector_4" fill-rule="evenodd" clip-rule="evenodd" d="M40.7075 86.739L34.9267 96.8875C25.1751 91.7879 20.8127 80.6096 24.0114 70.2642L12.3882 58.7417C8.10821 54.9456 6.88112 48.7629 9.38778 43.62L38.5228 73.6788C44.8414 80.375 41.6778 85.0583 40.7075 86.739Z" fill="#FFC300"/>
</g>
</g>
<path id="Vector_5" fill-rule="evenodd" clip-rule="evenodd" d="M43.9328 96.8874H39.4858L55.4504 68.6957L71.4149 96.8874H66.9679C66.9679 90.5266 61.8112 85.3699 55.4504 85.3699C49.0895 85.3699 43.9328 90.5266 43.9328 96.8874Z" fill="black"/>
</g>
</svg>
