<svg width="59" height="52" viewBox="0 0 59 52" fill="none" xmlns="http://www.w3.org/2000/svg">
<g id="Group 1">
<g id="Group">
<g id="Group_2">
<path id="Vector" fill-rule="evenodd" clip-rule="evenodd" d="M53.6029 18.9102C58.9557 14.1631 60.4899 6.43117 57.3549 0C40.6193 17.221 35.0465 23.0366 35.0465 23.0366C30.6699 27.6029 29.0926 31.9607 33.1767 39.0348C46.7941 25.6183 53.6029 18.9102 53.6029 18.9102Z" fill="#FFC300"/>
<path id="Vector_2" fill-rule="evenodd" clip-rule="evenodd" d="M37.3229 46.1204L40.3966 51.5165C45.5815 48.8049 47.901 42.8612 46.2002 37.3604L52.3805 31.2338C54.6562 29.2153 55.3087 25.9279 53.9758 23.1934L38.4844 39.1761C35.1247 42.7365 36.8068 45.2267 37.3229 46.1204Z" fill="#FFC300"/>
</g>
<g id="Group_3">
<path id="Vector_3" fill-rule="evenodd" clip-rule="evenodd" d="M5.36433 18.9102C0.0116646 14.1631 -1.52248 6.43117 1.6123 0C18.3478 17.221 23.9209 23.0366 23.9209 23.0366C28.2973 27.6029 29.8745 31.9607 25.7905 39.0348C12.173 25.6183 5.36433 18.9102 5.36433 18.9102Z" fill="#FFC300"/>
<path id="Vector_4" fill-rule="evenodd" clip-rule="evenodd" d="M21.6448 46.1204L18.571 51.5165C13.386 48.8049 11.0664 42.8612 12.7672 37.3604L6.587 31.2338C4.31125 29.2153 3.65878 25.9279 4.99161 23.1934L20.4831 39.1761C23.8428 42.7365 22.1607 45.2267 21.6448 46.1204Z" fill="#FFC300"/>
</g>
</g>
<path id="Vector_5" fill-rule="evenodd" clip-rule="evenodd" d="M23.3596 51.5165H20.9951L29.4837 36.5265L37.9722 51.5165H35.6077C35.6077 48.1343 32.8658 45.3924 29.4837 45.3924C26.1015 45.3924 23.3596 48.1343 23.3596 51.5165Z" fill="#FFC300"/>
</g>
</svg>
